<?xml version="1.0" encoding="UTF-8"?>
<svg id="Layer_2" data-name="Layer 2" xmlns="http://www.w3.org/2000/svg" viewBox="0 0 1000 1000">
  <defs>
    <style>
      .cls-1 {
        fill: #cb0f17;
      }

      .cls-2 {
        fill: #d40b13;
      }

      .cls-3 {
        fill: none;
      }

      .cls-4 {
        fill: #d21019;
      }
    </style>
  </defs>
  <g>
    <circle class="cls-3" cx="500" cy="500" r="445.24"/>
    <path class="cls-1" d="m500,956.83c-251.9,0-456.83-204.93-456.83-456.83S248.1,43.17,500,43.17s456.83,204.93,456.83,456.83-204.93,456.83-456.83,456.83Zm0-890.48c-239.12,0-433.65,194.54-433.65,433.65s194.54,433.65,433.65,433.65,433.65-194.54,433.65-433.65S739.12,66.35,500,66.35Z"/>
  </g>
  <g>
    <path class="cls-2" d="m555.04,385.2c-87.64,0-202.6-1.84-350.37-7.37l-3.18-.12-53.51-91.37,12.97,2.88c1.96.44,201.81,43.06,678.84-.11l11.12-1.01-51.53,89.37-2.9.33c-.96.11-67.15,7.4-241.44,7.4Zm-346.76-18.83c405.03,15.04,561.57,2.33,584,.21l37.44-64.94c-405.05,35.86-608.3,9.57-658.65,1.21l37.2,63.53Z"/>
    <rect class="cls-1" x="212.72" y="533.61" width="151.17" height="17.38" transform="translate(-268.78 800.88) rotate(-86.9)"/>
    <rect class="cls-1" x="329.32" y="468.33" width="17.38" height="126.59"/>
    <rect class="cls-1" x="329.32" y="375.17" width="17.38" height="61.64"/>
    <rect class="cls-1" x="266.45" y="395.76" width="58.63" height="17.38" transform="translate(-124.03 677.99) rotate(-86.91)"/>
    <rect class="cls-1" x="654.69" y="469.46" width="17.38" height="126.36"/>
    <rect class="cls-1" x="706.42" y="467.62" width="17.38" height="152.76" transform="translate(-31.31 43.83) rotate(-3.44)"/>
    <rect class="cls-1" x="698.07" y="377.21" width="17.38" height="55.46" transform="translate(-23.06 43.2) rotate(-3.44)"/>
    <rect class="cls-1" x="654.69" y="378.39" width="17.38" height="57.35"/>
    <rect class="cls-1" x="476.02" y="379.46" width="8.69" height="61.41"/>
    <rect class="cls-1" x="516.16" y="379.46" width="8.69" height="61.41"/>
    <path class="cls-4" d="m527.55,475.61c-79.02,0-177.1-1.69-293.65-6.76l-3.65-.16-6.07-46.84,5.66.81c2.22.32,225.34,31.53,541.91-.02l5.49-.55-6.45,46.45-3.46.29c-1.21.1-82.85,6.77-239.78,6.77Zm-289.63-15.28c319.09,13.73,498.6,2.07,525.22.12l3.97-28.61c-286.9,28.04-496.35,4.76-532.86.18l3.67,28.32Z"/>
    <path class="cls-1" d="m499.13,710.79c-9.94,0-19.82-.18-29.36-.52-7.24-.26-14.46-.61-21.46-1.05-4.94-.31-10.27-.7-16.75-1.25-5.13-.44-10.2-.93-15.18-1.46-5.38-.57-11.15-1.27-17.64-2.13-7.72-1.05-15.69-2.29-23.71-3.71-20.48-3.68-38.81-8.22-54.49-13.52-8.5-2.84-16.25-5.97-23.03-9.28-6.56-3.2-12.15-6.51-16.62-9.83-11.12-8.23-16.76-17.18-16.76-26.6,0-26.47,46.27-49.41,123.78-61.36l1.32,8.59c-70.72,10.9-116.42,31.62-116.42,52.77,0,6.51,4.46,13.12,13.24,19.62,4.05,3.01,9.18,6.04,15.25,9,6.43,3.15,13.83,6.12,21.98,8.85,15.29,5.16,33.19,9.6,53.24,13.2,7.89,1.39,15.74,2.62,23.34,3.65,6.41.85,12.1,1.54,17.4,2.1,4.92.51,9.93,1,15,1.44,5.44.46,10.94.89,16.55,1.24,6.93.43,14.07.78,21.24,1.04,9.44.34,19.21.52,29.04.52,11.83,0,23.34-.24,34.22-.72,6.96-.28,13.9-.66,21.23-1.18,6.57-.47,11.82-.9,16.52-1.35,5.69-.51,11.68-1.14,17.83-1.87,7.44-.93,13.09-1.7,18.27-2.5,8.93-1.33,17.84-2.91,26.53-4.68,15.46-3.17,29.5-6.88,41.71-11.04,9.56-3.23,18.03-6.79,25.18-10.56,6.59-3.48,11.94-7.08,15.9-10.69,5.91-5.37,8.9-10.77,8.9-16.05,0-19.21-38.03-38.31-99.24-49.84l1.61-8.54c67.57,12.73,106.32,34.01,106.32,58.38,0,7.84-3.95,15.4-11.74,22.48-4.5,4.1-10.45,8.13-17.69,11.95-7.56,3.99-16.46,7.73-26.45,11.11-12.55,4.27-26.93,8.08-42.76,11.32-8.83,1.81-17.91,3.41-26.96,4.76-5.25.81-10.97,1.59-18.53,2.53-6.25.74-12.33,1.38-18.08,1.9-4.75.45-10.07.89-16.71,1.37-7.43.53-14.46.92-21.49,1.2-10.99.48-22.63.73-34.59.73Z"/>
    <path class="cls-1" d="m510.84,580.87c-2.62-.03-5.24-.06-7.89-.06v-8.69c2.68,0,5.34.03,7.99.06l-.1,8.69Z"/>
    <path class="cls-1" d="m499.21,823.41c-50.44-.86-93.71-9.07-128.75-24.38-112.8-49.2-106.37-156.82-106.3-157.91l8.67.62c-.29,4.17-5.93,102.63,101.11,149.32,33.99,14.85,76.14,22.81,125.27,23.65,48.93-.84,91.09-8.8,125.15-23.65,107.01-46.69,101.37-145.15,101.08-149.32l8.67-.62c.08,1.08,6.51,108.7-106.27,157.91-35.12,15.31-78.39,23.51-128.63,24.38Z"/>
    <g>
      <path class="cls-1" d="m433.29,692.88c-4.5-.94-8.94-2.32-13.2-4.09l3.34-8.02c3.77,1.56,7.68,2.78,11.65,3.61l-1.78,8.5Z"/>
      <polygon class="cls-1" points="511.41 601.09 511.41 601.06 520.1 601.06 511.41 601.09"/>
      <polygon class="cls-1" points="511.41 639.42 511.41 639.39 520.1 639.39 511.41 639.42"/>
      <path class="cls-1" d="m383.74,610.75l-8.6-1.24c5.21-36.19,36.77-63.48,73.42-63.48,25.05,0,48.23,12.51,62.03,33.47l-7.26,4.78c-12.18-18.51-32.66-29.56-54.77-29.56-32.35,0-60.22,24.09-64.82,56.03Z"/>
      <polygon class="cls-1" points="491.61 680.62 485.62 674.33 491.64 680.59 491.61 680.62"/>
      <polygon class="cls-1" points="461.36 676.2 461.33 676.2 461.33 667.51 461.36 676.2"/>
      <path class="cls-1" d="m502.15,641.07l-8.01-3.37c.33-.77.6-1.57.85-2.36l8.29,2.59c-.33,1.06-.7,2.11-1.13,3.14Z"/>
      <path class="cls-1" d="m399.74,619.46l-8.69-.13c.47-31.22,26.26-56.62,57.5-56.62,23.64,0,45.2,14.8,53.65,36.82l-8.11,3.11c-7.17-18.69-25.47-31.25-45.53-31.25-26.52,0-48.41,21.56-48.81,48.06Z"/>
      <path class="cls-1" d="m439.85,677.11c-7.07-1.08-13.82-3.45-20.06-7.05l4.35-7.52c5.29,3.06,11.02,5.07,17.02,5.99l-1.31,8.59Z"/>
      <g>
        <circle class="cls-1" cx="448.55" cy="620.24" r="31.81"/>
        <path class="cls-1" d="m448.55,656.39c-19.93,0-36.15-16.22-36.15-36.15s16.22-36.15,36.15-36.15,36.15,16.22,36.15,36.15-16.22,36.15-36.15,36.15Zm0-63.61c-15.14,0-27.46,12.32-27.46,27.46s12.32,27.46,27.46,27.46,27.46-12.32,27.46-27.46-12.32-27.46-27.46-27.46Z"/>
      </g>
    </g>
    <g>
      <path class="cls-1" d="m547.84,690.25c-6.02-17.07-20.83-29.37-38.67-32.08-1.95-.29-3.75-.46-5.5-.51l.25-8.68c2.1.06,4.23.25,6.54.6,21.04,3.2,38.49,17.67,45.58,37.79l-8.2,2.89Z"/>
      <path class="cls-1" d="m566.26,694.53l-.85-3.56c-1.26-5.32-3.27-10.55-5.95-15.55l7.66-4.11c2.42,4.52,4.36,9.22,5.77,14.01,3.19-.37,6.32-.96,9.34-1.78l2.26,8.39c-4.7,1.27-9.61,2.07-14.59,2.37l-3.65.23Z"/>
      <path class="cls-1" d="m493.23,637.77c-1.39-5.63-2.1-11.52-2.1-17.53,0-6.92.95-13.77,2.83-20.34,2.02-7.17,5.17-14.04,9.36-20.4,13.79-20.96,36.98-33.47,62.03-33.47,32.26,0,60.62,20.59,70.59,51.23l-8.27,2.69c-8.79-27.05-33.84-45.23-62.32-45.23-22.11,0-42.59,11.05-54.77,29.56-3.7,5.62-6.48,11.67-8.25,17.99-1.66,5.82-2.5,11.86-2.5,17.97,0,5.3.62,10.49,1.84,15.44l-8.44,2.09Z"/>
      <polygon class="cls-1" points="613.67 666.15 613.67 666.12 622.36 666.12 613.67 666.15"/>
      <path class="cls-1" d="m514.33,642.14c-3.9-.78-7.97-1.19-12.11-1.22-.02.05-.04.1-.06.15l-.36-.15c-.75.04-1.54.03-2.31.05l-.09-1.06-5.26-2.21c.33-.77.6-1.57.85-2.36l.92-2.95,3.08-.1c1.06-.03,1.9-.06,2.75-.06,4.88,0,9.68.47,14.29,1.39l2.48.5.79,2.4c.12.35.23.68.38,1.02l.42.88v.97h-4.38s-.94.46-.94.46l-.46,2.29Z"/>
      <path class="cls-1" d="m511.83,641.24c-.31-.65-.55-1.3-.78-2-2.13-6.05-3.23-12.47-3.23-19,0-6.86,1.21-13.57,3.59-19.95h0s.29-.79.29-.79c8.49-22,30.04-36.79,53.64-36.79,25.19,0,47.82,16.8,55.06,40.87l-8.32,2.5c-6.14-20.42-25.35-34.68-46.74-34.68-19.81,0-37.93,12.28-45.3,30.61l-.25.66c-2.19,5.6-3.3,11.51-3.3,17.57,0,5.54.93,10.99,2.77,16.2.14.44.25.77.41,1.1l.42.88v.97h-4.38s-3.9,1.85-3.9,1.85Z"/>
      <path class="cls-1" d="m565.35,677.77c-.82,0-1.65,0-2.44-.08l.77-8.66c.55.05,1.11.05,1.67.04,4.67,0,9.23-.65,13.57-1.94l2.47,8.33c-5.14,1.52-10.53,2.29-16.04,2.29Z"/>
      <g>
        <path class="cls-1" d="m582.64,646.92c-4.98,3.24-10.92,5.13-17.29,5.13-17.55,0-31.81-14.25-31.81-31.81s14.25-31.81,31.81-31.81,31.78,14.22,31.81,31.78"/>
        <path class="cls-1" d="m565.35,656.39c-19.93,0-36.15-16.22-36.15-36.15s16.22-36.15,36.15-36.15,36.12,16.2,36.15,36.12h-8.69c-.03-15.12-12.35-27.43-27.46-27.43s-27.46,12.32-27.46,27.46,12.32,27.46,27.46,27.46c5.32,0,10.48-1.53,14.92-4.42l4.74,7.28c-5.86,3.82-12.66,5.83-19.67,5.83Z"/>
      </g>
    </g>
    <g>
      <path class="cls-1" d="m587.15,705.95l-1.45-2.47c-6.61-11.28-10.1-24.21-10.1-37.36,0-40.92,33.29-74.21,74.21-74.21,38.55,0,71.04,30.07,73.97,68.47l.16,2.11-1.56,1.43c-4.5,4.11-10.46,8.14-17.7,11.96l-4.06-7.68c5.74-3.03,10.54-6.15,14.3-9.3-3.6-32.86-31.79-58.3-65.11-58.3-36.13,0-65.52,29.39-65.52,65.52,0,10.66,2.59,21.14,7.53,30.49,6.07-.77,10.9-1.44,15.39-2.14l1.32,8.59c-5.27.81-10.99,1.6-18.55,2.54l-2.84.35Z"/>
      <path class="cls-1" d="m604.45,701.45c-7.96-10.18-12.16-22.4-12.16-35.32,0-31.72,25.81-57.53,57.53-57.53s57.53,25.81,57.53,57.53c0,2.16-.13,4.32-.38,6.42l-8.63-1.03c.21-1.76.32-3.58.32-5.39,0-26.93-21.91-48.84-48.84-48.84s-48.84,21.91-48.84,48.84c0,10.97,3.57,21.34,10.32,29.97l-6.85,5.35Z"/>
      <g>
        <path class="cls-1" d="m676.85,682.87c3.04-4.87,4.78-10.6,4.78-16.74,0-17.55-14.25-31.81-31.81-31.81s-31.81,14.25-31.81,31.81c0,12.05,6.72,22.54,16.6,27.92"/>
        <path class="cls-1" d="m632.53,697.86c-11.63-6.35-18.86-18.51-18.86-31.74,0-19.93,16.22-36.15,36.15-36.15s36.15,16.22,36.15,36.15c0,6.76-1.88,13.35-5.44,19.05l-7.37-4.61c2.7-4.31,4.12-9.31,4.12-14.44,0-15.14-12.32-27.46-27.46-27.46s-27.46,12.32-27.46,27.46c0,10.05,5.49,19.29,14.33,24.11l-4.16,7.63Z"/>
      </g>
    </g>
    <g>
      <path class="cls-1" d="m448.32,709.22c-4.95-.31-10.27-.7-16.76-1.25l-4.14-.35.16-4.15c.21-5.37,1.02-10.73,2.4-15.95,1.51-5.82,3.77-11.48,6.71-16.81,5.4-9.86,13.18-18.53,22.48-25.06,2.54-1.76,4.9-3.21,7.23-4.45,9.52-5.21,19.9-8.18,30.78-8.81.49-.06,1.19-.1,1.93-.1.92-.03,1.76-.06,2.61-.06,4.88,0,9.68.47,14.29,1.39l.9.16c21.51,4.51,39.77,18.18,50.19,37.52,3.04,5.67,5.31,11.61,6.75,17.66,1.11,4.52,1.78,9.24,2,14.02l.19,4.13-4.11.39c-4.77.46-10.09.89-16.73,1.37l-.62-8.67c4.67-.34,8.67-.65,12.28-.96-.3-2.79-.79-5.55-1.45-8.23-1.27-5.35-3.27-10.58-5.95-15.58-9.2-17.07-25.32-29.15-44.22-33.11l-.87-.16c-4.81-.96-9.84-1.35-14.89-1.18h-.36c-.42,0-.82.03-1.21.07-9.81.58-18.95,3.2-27.38,7.8-2.07,1.1-4.15,2.38-6.39,3.93-8.2,5.75-15.06,13.41-19.84,22.12-2.6,4.7-4.59,9.68-5.92,14.82-.87,3.27-1.48,6.6-1.83,9.94,4.05.33,8.13.63,12.28.88l-.53,8.67Z"/>
      <path class="cls-1" d="m452.93,705.01l-8.69-.26c.39-13.09,5.29-25.77,13.78-35.71l1.38-1.52c10.87-11.84,26.18-18.6,42.33-18.6.82,0,1.64,0,2.42.07,1.85.05,3.99.24,6.29.58,21.04,3.2,38.49,17.67,45.58,37.79,1.91,5.43,2.98,11.15,3.2,17.01l-8.68.32c-.18-4.99-1.1-9.85-2.71-14.45-6.02-17.07-20.83-29.37-38.67-32.08-1.95-.29-3.75-.46-5.5-.51-.79-.06-1.36-.05-1.93-.05-14.29,0-27.8,6.22-37.08,17.07l-.97,1.13c-6.64,8.27-10.45,18.58-10.77,29.2Z"/>
      <g>
        <path class="cls-1" d="m469.93,705.92c.29-17.32,14.43-31.28,31.81-31.28s31.4,13.85,31.81,31.08"/>
        <path class="cls-1" d="m474.28,706l-8.69-.15c.33-19.6,16.55-35.56,36.15-35.56s35.69,15.85,36.15,35.32l-8.69.2c-.35-14.8-12.66-26.84-27.46-26.84s-27.21,12.12-27.46,27.01Z"/>
      </g>
    </g>
    <g>
      <path class="cls-1" d="m420.83,703.91l-7.98-3.44c3.51-8.14,5.29-16.83,5.29-25.83,0-36.13-29.39-65.52-65.52-65.52-32.35,0-60.21,24.1-64.82,56.06l-8.6-1.24c5.21-36.21,36.78-63.51,73.42-63.51,40.92,0,74.21,33.29,74.21,74.21,0,10.19-2.02,20.03-6,29.27Z"/>
      <path class="cls-1" d="m403.12,702.16l-7.62-4.18c3.9-7.11,5.95-15.18,5.95-23.34,0-26.93-21.91-48.84-48.84-48.84s-48.49,21.63-48.84,48.23l-8.69-.11c.41-31.32,26.21-56.81,57.53-56.81s57.53,25.81,57.53,57.53c0,9.62-2.43,19.13-7.02,27.52Z"/>
      <g>
        <path class="cls-1" d="m375.79,696.39c5.36-5.68,8.63-13.32,8.63-21.75,0-17.55-14.25-31.81-31.81-31.81s-31.81,14.25-31.81,31.81c0,2.9.38,5.74,1.13,8.4"/>
        <path class="cls-1" d="m378.95,699.38l-6.32-5.96c4.8-5.09,7.45-11.75,7.45-18.77,0-15.14-12.32-27.46-27.46-27.46s-27.46,12.32-27.46,27.46c0,2.52.33,4.95.96,7.22l-8.36,2.36c-.86-3.04-1.29-6.26-1.29-9.58,0-19.93,16.22-36.15,36.15-36.15s36.15,16.22,36.15,36.15c0,9.24-3.49,18.03-9.82,24.74Z"/>
      </g>
    </g>
    <path class="cls-1" d="m628.96,795.06v32.36c-126.53,61.87-256.77,0-256.77,0v-32.36c31.69,13.85,73.03,23.09,126.93,24.01,53.94-.93,95.27-10.2,126.96-24.01h2.87Z"/>
  </g>
  <g>
    <path class="cls-1" d="m424.32,783.57c-.46,3.34-2.61,4.76-6.45,4.19-7.11-1.05-10.66-1.63-17.74-2.91-3.75-.68-5.3-2.7-4.67-6.01,1.02-5.35,1.53-8.02,2.55-13.37,3.59.68,5.38,1.01,8.98,1.63-.79,4.56-1.19,6.84-1.98,11.39,4.13.72,6.2,1.05,10.33,1.69,2.94-19.07,4.41-28.6,7.34-47.67,3.38.52,5.06.77,8.45,1.23-2.73,19.93-4.09,29.89-6.82,49.81Z"/>
    <path class="cls-1" d="m470.24,793c-3.74-.2-5.61-.31-9.35-.57-.47-4.24-.69-6.36-1.13-10.61-4.63-.34-6.95-.53-11.57-.97-1.14,4.11-1.71,6.17-2.87,10.27-3.71-.36-5.57-.56-9.28-.98,0-.06,0-.08.02-.14,7.38-21.41,10.83-32.17,17.26-53.78,3.57.33,5.35.48,8.93.75,2.72,22.43,4.32,33.64,8,56.03Zm-11.25-18.37c-1.03-10.09-1.5-15.14-2.36-25.23-2.54,9.81-3.86,14.71-6.56,24.48,3.57.33,5.35.48,8.93.75Z"/>
    <path class="cls-1" d="m512.7,768.43c.08,3.44-1.73,5.21-5.44,5.26-5.9.08-8.85.08-14.75,0-.11,8.02-.17,12.03-.28,20.05-3.78-.05-5.66-.09-9.44-.21.68-22.13,1.01-33.19,1.69-55.31,8.92.27,13.38.31,22.3.19,3.47-.05,5.24,1.6,5.32,4.99.24,10.01.35,15.02.59,25.03Zm-9.11-1.81c-.06-8.43-.08-12.64-.14-21.07-4.22.03-6.33.02-10.55-.04-.12,8.43-.17,12.64-.29,21.07,4.39.06,6.59.07,10.98.04Z"/>
    <path class="cls-1" d="m558.49,785.65c.35,3.35-1.37,5.24-5.18,5.6-8.17.78-12.26,1.09-20.45,1.57-3.73.22-5.68-1.38-5.85-4.75-.88-18.05-1.31-27.08-2.19-45.14-.16-3.39,1.44-5.16,4.8-5.36,7.38-.43,11.07-.71,18.44-1.42,3.43-.33,5.33,1.17,5.68,4.55,1.89,17.98,2.84,26.96,4.74,44.94Zm-9.51-1.14c-1.45-16.39-2.17-24.58-3.62-40.97-4.72.42-7.09.6-11.81.91,1.07,16.41,1.61,24.62,2.68,41.04,5.11-.33,7.66-.53,12.76-.98Zm-.04-60.23c-3.75,4.12-5.67,6.17-9.58,10.22-2.43.19-3.64.28-6.07.44,0-.11-.01-.17-.02-.28,2.24-3.9,3.33-5.86,5.48-9.79,4.07-.32,6.1-.5,10.16-.9.01.13.02.19.03.32Z"/>
    <path class="cls-1" d="m605.48,783.82c-3.27.62-4.9.92-8.17,1.5-8.39-12.67-12.41-19.08-20.08-32.03.62,1.62,1.01,2.91,1.15,3.87,1.82,12.2,2.73,18.3,4.54,30.5-3.65.54-5.48.8-9.13,1.28-2.9-21.94-4.35-32.92-7.25-54.86,2.96-.39,4.45-.6,7.41-1.03,7.4,12.71,11.28,19,19.39,31.43-.68-1.6-1.09-2.88-1.26-3.84-2.06-11.87-3.1-17.81-5.16-29.68,3.28-.57,4.92-.87,8.19-1.49,4.15,21.74,6.22,32.61,10.37,54.36Z"/>
  </g>
</svg>